<?xml version="1.0" encoding="UTF-8" standalone="no"?>
<!DOCTYPE svg PUBLIC "-//W3C//DTD SVG 1.1//EN" "http://www.w3.org/Graphics/SVG/1.1/DTD/svg11.dtd">
<svg width="100%" height="100%" viewBox="0 0 3000 2000" version="1.1" xmlns="http://www.w3.org/2000/svg" xmlns:xlink="http://www.w3.org/1999/xlink" xml:space="preserve" xmlns:serif="http://www.serif.com/" style="fill-rule:evenodd;clip-rule:evenodd;stroke-linejoin:round;stroke-miterlimit:2;">
    <g transform="matrix(6.607828,0,0,-6.607828,1429.549902,1055.772994)">
        <g transform="matrix(1,0,0,1,-239.583333,-52.083333)">
            <clipPath id="_clip1">
                <rect x="0" y="0" width="479.167" height="104.167"/>
            </clipPath>
            <g clip-path="url(#_clip1)">
                <g id="wave3" transform="matrix(4.166667,0,0,4.166667,0,-8.333333)">
                    <path d="M0,10C30,10 30,15 60,15C90,15 90,10 120,10C150,10 150,15 180,15C210,15 210,10 240,10L240,38L0,38L0,10Z" style="fill:rgb(68,120,227);fill-rule:nonzero;"/>
                </g>
                <g id="wave2" transform="matrix(4.166667,0,0,4.166667,0,0)">
                    <path d="M0,10C30,10 30,15 60,15C90,15 90,10 120,10C150,10 150,15 180,15C210,15 210,10 240,10L240,38L0,38L0,10Z" style="fill:rgb(68,120,227);fill-rule:nonzero;"/>
                </g>
            </g>
        </g>
    </g>
</svg>
