<?xml version="1.0" encoding="UTF-8" standalone="no"?>
<!DOCTYPE svg PUBLIC "-//W3C//DTD SVG 1.1//EN" "http://www.w3.org/Graphics/SVG/1.1/DTD/svg11.dtd">
<svg width="100%" height="100%" viewBox="0 0 480 105" version="1.1" xmlns="http://www.w3.org/2000/svg" xmlns:xlink="http://www.w3.org/1999/xlink" xml:space="preserve" xmlns:serif="http://www.serif.com/" style="fill-rule:evenodd;clip-rule:evenodd;stroke-linejoin:round;stroke-miterlimit:2;">
    <g id="wave3" transform="matrix(4.166667,0,0,4.166667,0,-8.333333)">
        <path d="M0,10C30,10 30,15 60,15C90,15 90,10 120,10C150,10 150,15 180,15C210,15 210,10 240,10L240,38L0,38L0,10Z" style="fill:rgb(68,120,227);fill-rule:nonzero;"/>
    </g>
    <g id="wave2" transform="matrix(4.166667,0,0,4.166667,0,0)">
        <path d="M0,10C30,10 30,15 60,15C90,15 90,10 120,10C150,10 150,15 180,15C210,15 210,10 240,10L240,38L0,38L0,10Z" style="fill:rgb(68,120,227);fill-rule:nonzero;"/>
    </g>
    <g transform="matrix(4.166667,0,-0,4.166667,0,0)">
        <g>
            <text x="0px" y="0px" style="font-family:'TimesNewRomanPSMT', 'Times New Roman', serif;font-size:1px;fill:rgb(128,128,128);">@Trilokia</text>
        </g>
    </g>
</svg>
